# xmcd CD database file
#
# Track frame offsets:
#	150
#	17123
#	34013
#	57249
#	75030
#	90454
#	116966
#	138420
#	155971
#	172358
#	197646
#	225475
#	245971
#
# Disc length: 3899 seconds
#
# Revision: 0
# Processed by: cddbd v1.5.2PL0 Copyright (c) Steve Scherf et al.
# Submitted via: CDex 1.70beta2
#
DISCID=af0f390d
DTITLE=Black Rebel Motorcycle Club - Beat the Devil's Tattoo
DYEAR=2010
DGENRE=Blues
TTITLE0=Beat the Devil's Tattoo
TTITLE1=Conscience Killer
TTITLE2=Bad Blood
TTITLE3=War Machine
TTITLE4=Sweet Feeling
TTITLE5=Evol
TTITLE6=Mama taught me better
TTITLE7=River Styx
TTITLE8=The toll
TTITLE9=Ava
TTITLE10=Shadow's Killer
TTITLE11=Long way down
TTITLE12=Half-State
EXTD=YEAR: 2010
EXTT0=
EXTT1=
EXTT2=
EXTT3=
EXTT4=
EXTT5=
EXTT6=
EXTT7=
EXTT8=
EXTT9=
EXTT10=
EXTT11=
EXTT12=
PLAYORDER=
